HIERARCHY
ROOT Hips
{
	OFFSET 0.00000 0.00000 0.00000
	CHANNELS 6 Xposition Yposition Zposition Zrotation Yrotation Xrotation 
	JOINT LHipJoint
	{
		OFFSET 0 0 0
		CHANNELS 3 Zrotation Yrotation Xrotation
		JOINT LeftHip
		{
			OFFSET 1.80322 -1.53100 0.99595
			CHANNELS 3 Zrotation Yrotation Xrotation
			JOINT LeftKnee
			{
				OFFSET 2.25177 -6.18669 0.00000
				CHANNELS 3 Zrotation Yrotation Xrotation
				JOINT LeftAnkle
				{
					OFFSET 2.26601 -6.22582 0.00000
					CHANNELS 3 Zrotation Yrotation Xrotation
					JOINT LeftToe
					{
						OFFSET 0.23701 -0.65119 2.15848
						CHANNELS 3 Zrotation Yrotation Xrotation
						End Site
						{
							OFFSET 0.00000 -0.00000 1.12949
						}
					}
				}
			}
		}
	}
	JOINT RHipJoint
	{
		OFFSET 0 0 0
		CHANNELS 3 Zrotation Yrotation Xrotation
		JOINT RightHip
		{
			OFFSET -1.93977 -1.53100 0.99595
			CHANNELS 3 Zrotation Yrotation Xrotation
			JOINT RightKnee
			{
				OFFSET -2.28036 -6.26523 0.00000
				CHANNELS 3 Zrotation Yrotation Xrotation
				JOINT RightAnkle
				{
					OFFSET -2.25490 -6.19528 0.00000
					CHANNELS 3 Zrotation Yrotation Xrotation
					JOINT RightToe
					{
						OFFSET -0.28375 -0.77960 2.23137
						CHANNELS 3 Zrotation Yrotation Xrotation
						End Site
						{
							OFFSET -0.00000 -0.00000 1.17899
						}
					}
				}
			}
		}
	}
	JOINT lowerback
	{
		OFFSET 0 0 0
		CHANNELS 3 Zrotation Yrotation Xrotation
		JOINT Chest
		{
			OFFSET -0.00088 2.12090 -0.02806
			CHANNELS 3 Zrotation Yrotation Xrotation
			JOINT Chest2
			{
				OFFSET -0.00286 2.09666 0.12974
				CHANNELS 3 Zrotation Yrotation Xrotation
				JOINT lowerneck
				{
					OFFSET 0 0 0
					CHANNELS 3 Zrotation Yrotation Xrotation
					JOINT Neck
					{
						OFFSET 0.07328 1.83526 0.07290
						CHANNELS 3 Zrotation Yrotation Xrotation
						JOINT Head
						{
							OFFSET -0.06683 1.74974 -0.49542
							CHANNELS 3 Zrotation Yrotation Xrotation
							End Site
							{
								OFFSET -0.03398 1.85163 -0.17573
							}
						}
					}
				}
				JOINT LeftCollar
				{
					OFFSET 0 0 0
					CHANNELS 3 Zrotation Yrotation Xrotation
					JOINT LeftShoulder
					{
						OFFSET 3.02113 1.18018 0.40602
CHANNELS 3 Zrotation Xrotation Yrotation
						JOINT LeftElbow
						{
OFFSET 0 -4.585380 -0.000000
CHANNELS 3 Zrotation Xrotation Yrotation
							JOINT LeftWrist
							{
OFFSET 0 -2.689350 -0.000000
CHANNELS 3 Zrotation Xrotation Yrotation
								JOINT lhand
								{
									OFFSET 0 0 0
CHANNELS 3 Zrotation Xrotation Yrotation
									JOINT LFingers
									{
OFFSET 0 -0.585060 -0.000000
CHANNELS 3 Zrotation Xrotation Yrotation
										End Site
										{
OFFSET 0 -0.471690 -0.000000
										}
									}
								}
								JOINT LThumb
								{
OFFSET 0 0.000000 0.000000
CHANNELS 3 Zrotation Xrotation Yrotation
									End Site
									{
OFFSET 0 -0.478890 0.478890
									}
								}
							}
						}
					}
				}
				JOINT RightCollar
				{
					OFFSET 0 0 0
					CHANNELS 3 Zrotation Yrotation Xrotation
					JOINT RightShoulder
					{
						OFFSET -2.95074 1.18843 0.31430
CHANNELS 3 Zrotation Xrotation Yrotation
						JOINT RightElbow
						{
OFFSET 0 -4.474500 -0.000000
CHANNELS 3 Zrotation Xrotation Yrotation
							JOINT RightWrist
							{
OFFSET 0 -2.938960 -0.000000
CHANNELS 3 Zrotation Xrotation Yrotation
								JOINT rhand
								{
									OFFSET 0 0 0
CHANNELS 3 Zrotation Xrotation Yrotation
									JOINT RFingers
									{
OFFSET 0 -0.405090 -0.000000
CHANNELS 3 Zrotation Xrotation Yrotation
										End Site
										{
OFFSET 0 -0.326600 -0.000000
										}
									}
								}
								JOINT RThumb
								{
OFFSET 0 0.000000 0.000000
CHANNELS 3 Zrotation Xrotation Yrotation
									End Site
									{
OFFSET 0 -0.331580 0.331580
									}
								}
							}
						}
					}
				}
			}
		}
	}
}
MOTION
Frames: 9
Frame Time: 0.008333333333333333
-0.013900 15.517300 7.752900 0.807800 -2.499700 10.571400 0.000000 0.000000 0.000000 -21.392800 -17.655700 -15.156100 2.837300 10.426900 30.370600 0.945600 8.818100 -23.571800 0.004100 0.413900 1.137200 0.000000 0.000000 0.000000 18.462300 14.814700 -20.067400 -3.792000 -11.878300 35.302800 -1.480600 -2.160700 -23.856000 -0.014700 -0.783800 2.154200 -0.839000 -1.919900 -5.435000 -0.463500 -2.578500 -7.592900 -0.040300 -1.267800 -4.806600 -4.359100 -9.274700 -5.879800 -2.563900 -12.144600 31.679600 -1.589400 -6.408500 11.364500 0.000000 0.000000 0.000000 0.390500 13.708700 -10.794800 18.777900 -29.141800 4.922200 3.574200 11.773500 -12.887600 0.000000 0.000000 0.000000 -7.125000 0.000000 0.000000 -21.078200 41.887500 -1.702500 0.000000 0.000000 0.000000 -5.426300 5.853200 22.843100 -13.473300 -21.976800 -2.627800 -7.639000 12.920900 9.654500 0.000000 0.000000 0.000000 7.125000 0.000000 -0.000000 16.697900 39.175200 2.477700
-0.080701 15.507027 7.814541 0.736593 -2.505593 10.350291 0.000000 0.000000 0.000000 -21.199739 -17.667468 -14.645633 2.870254 10.482054 30.552255 1.016501 8.788749 -24.139560 0.010193 0.651753 1.791086 0.000000 0.000000 0.000000 18.928851 14.161089 -19.698470 -3.779173 -11.860660 35.240660 -1.544281 -1.500642 -24.069204 -0.020840 -0.931455 2.560151 -0.868362 -2.077481 -5.823247 -0.450600 -2.787742 -7.956752 -0.020106 -1.370508 -4.973449 -5.043689 -9.728075 -5.847861 -1.904608 -12.913611 31.627130 -1.344105 -6.763015 11.459329 0.000000 0.000000 0.000000 1.076818 14.004955 -11.668173 19.127919 -29.577287 5.093889 2.937054 12.334620 -13.332133 0.000000 0.000000 0.000000 -7.125000 0.000000 0.000000 -21.770404 42.238592 -1.564960 0.000000 0.000000 0.000000 -5.580896 5.634521 27.353003 -15.211081 -24.439324 -3.312818 -7.594707 7.372217 10.343272 0.000000 0.000000 0.000000 7.125000 0.000000 0.000000 16.914411 39.835605 2.226967
-0.134021 15.498466 7.882362 0.765701 -2.466851 10.201514 0.000000 0.000000 0.000000 -21.178634 -17.696424 -14.136098 2.880360 10.498867 30.607868 1.047354 8.909462 -24.485387 0.008520 0.596002 1.637701 0.000000 0.000000 0.000000 19.192361 13.487995 -19.398400 -3.778933 -11.860307 35.239666 -1.623722 -0.815292 -24.403929 -0.023727 -0.993601 2.731256 -0.959676 -2.149256 -6.314171 -0.468972 -2.879843 -8.344522 -0.000651 -1.412015 -5.108896 -5.111860 -9.749378 -5.980156 -1.578623 -13.069453 32.058310 -1.267839 -6.802353 11.692732 0.000000 0.000000 0.000000 1.896954 14.064816 -11.755156 19.340677 -29.839863 5.199245 3.546492 13.767368 -13.759954 0.000000 0.000000 0.000000 -7.125000 0.000000 0.000000 -21.400660 42.697991 -1.279409 0.000000 0.000000 0.000000 -5.632773 5.797536 30.564501 -17.018027 -26.881499 -4.095498 -7.207633 2.011562 11.164273 0.000000 0.000000 0.000000 7.125000 0.000000 0.000000 17.465698 40.591890 1.966832
-0.168061 15.490200 7.951603 0.827524 -2.408778 9.954331 0.000000 0.000000 0.000000 -21.300888 -17.576296 -13.562257 2.885600 10.507500 30.636220 1.073241 8.978764 -24.748190 0.005760 0.490837 1.348773 0.000000 0.000000 0.000000 19.399485 13.249033 -18.861160 -3.783181 -11.866201 35.260263 -1.660881 -0.825285 -24.683012 -0.023780 -0.995300 2.735919 -1.070124 -2.214683 -6.699774 -0.416197 -2.959764 -8.641993 0.105085 -1.443722 -5.203125 -5.137702 -9.700736 -5.997301 -1.587086 -13.021314 32.358435 -1.276762 -6.786038 11.817466 0.000000 0.000000 0.000000 2.461137 14.130069 -11.260718 19.353284 -29.855325 5.205582 4.307713 13.515871 -13.987274 0.000000 0.000000 0.000000 -7.125000 0.000000 0.000000 -20.827934 42.988834 -1.084572 0.000000 0.000000 0.000000 -5.501953 5.866507 31.749526 -17.985762 -28.138928 -4.542550 -7.036455 -0.506796 11.601719 0.000000 0.000000 0.000000 7.125000 0.000000 0.000000 17.735430 40.995897 1.815913
-0.180100 15.483113 8.016783 0.981122 -2.320360 9.789793 0.000000 0.000000 0.000000 -21.595292 -17.508117 -13.068249 2.877973 10.494847 30.594633 1.082967 9.108807 -24.927083 0.004173 0.417864 1.148119 0.000000 0.000000 0.000000 19.387017 13.129480 -18.451223 -3.807214 -11.899428 35.377012 -1.698429 -0.958454 -25.006800 -0.022773 -0.974759 2.679437 -1.201827 -2.286942 -6.987126 -0.360263 -3.049210 -8.942788 0.229547 -1.477908 -5.355455 -5.169477 -9.644754 -6.070522 -1.708016 -12.920594 32.665105 -1.322381 -6.758661 11.947303 0.000000 0.000000 0.000000 2.785345 14.416771 -10.859858 19.265345 -29.747035 5.161813 4.632841 13.204233 -13.944880 0.000000 0.000000 0.000000 -7.125000 0.000000 0.000000 -20.533769 42.982941 -1.070819 0.000000 0.000000 0.000000 -5.328026 6.092942 31.939070 -18.170691 -28.375144 -4.630086 -6.892514 -1.686327 11.905050 0.000000 0.000000 0.000000 7.125000 0.000000 0.000000 17.946502 41.273148 1.711621
-0.171699 15.481267 8.077837 1.065177 -2.129948 9.701132 0.000000 0.000000 0.000000 -21.854023 -17.405916 -12.814661 2.898802 10.529436 30.708808 1.100735 9.050642 -25.022428 0.004700 0.441008 1.211856 0.000000 0.000000 0.000000 19.369889 13.183698 -17.962706 -3.797633 -11.886132 35.330363 -1.722268 -1.335888 -25.322121 -0.022400 -0.966866 2.657732 -1.235270 -2.313535 -7.246318 -0.295397 -3.078902 -9.167549 0.309204 -1.487467 -5.447107 -5.196203 -9.701371 -6.084637 -1.724400 -13.003640 32.710743 -1.338201 -6.802003 11.971605 0.000000 0.000000 0.000000 2.748488 14.704421 -10.342727 18.836888 -29.215444 4.950978 4.756805 13.707161 -13.927358 0.000000 0.000000 0.000000 -7.125000 0.000000 0.000000 -20.421059 42.979326 -1.066303 0.000000 0.000000 0.000000 -5.221630 6.575707 31.311900 -17.880859 -28.004280 -4.493147 -6.661400 -1.466719 11.825233 0.000000 0.000000 0.000000 7.125000 0.000000 0.000000 18.119957 41.175634 1.774747
-0.143657 15.481720 8.130644 1.230426 -2.041105 9.721141 0.000000 0.000000 0.000000 -22.213085 -17.108260 -12.766633 2.905160 10.539920 30.743440 1.124161 8.747090 -24.973882 0.007180 0.548445 1.507095 0.000000 0.000000 0.000000 19.138486 13.443214 -17.636455 -3.805841 -11.897481 35.370325 -1.740721 -1.783502 -25.631481 -0.020560 -0.925351 2.543376 -1.284534 -2.292197 -7.464391 -0.256333 -3.045575 -9.371373 0.373804 -1.465378 -5.541168 -5.207582 -9.730159 -6.202567 -1.747059 -13.035937 32.730157 -1.357658 -6.818599 12.003132 0.000000 0.000000 0.000000 2.451023 14.976109 -9.437780 18.062501 -28.237085 4.578792 4.700929 14.844910 -13.738939 0.000000 0.000000 0.000000 -7.125000 0.000000 0.000000 -20.404489 42.796758 -1.161822 0.000000 0.000000 0.000000 -5.157362 7.020332 29.981312 -17.019887 -26.883884 -4.096347 -6.590607 -0.214357 11.194589 0.000000 0.000000 0.000000 7.125000 0.000000 0.000000 17.997042 40.567070 2.042674
-0.098989 15.478179 8.170730 1.325772 -2.117591 9.672964 0.000000 0.000000 0.000000 -22.589402 -16.829695 -12.563148 2.886765 10.509457 30.642852 1.144296 8.638942 -25.050704 0.010287 0.655096 1.800246 0.000000 0.000000 0.000000 18.917816 13.738275 -17.352236 -3.832036 -11.933497 35.497153 -1.754927 -2.199080 -25.903817 -0.016120 -0.820529 2.255109 -1.165270 -2.247070 -7.471974 -0.191768 -2.988621 -9.483422 0.378867 -1.440915 -5.660911 -5.296385 -9.600105 -6.649214 -1.613138 -12.859129 32.917536 -1.311809 -6.722762 12.185098 0.000000 0.000000 0.000000 2.021048 15.618147 -8.718023 17.895861 -28.023601 4.500265 3.979215 14.010055 -14.297162 0.000000 0.000000 0.000000 -7.125000 0.000000 0.000000 -21.219631 43.243638 -0.966232 0.000000 0.000000 0.000000 -5.242963 7.521780 29.017463 -16.536661 -26.242930 -3.880245 -6.535544 -0.280906 10.902831 0.000000 0.000000 0.000000 7.125000 0.000000 0.000000 17.960807 40.283466 2.168855
-0.048628 15.470719 8.195636 1.247920 -2.227289 9.689664 0.000000 0.000000 0.000000 -22.730613 -16.613626 -12.502539 2.874659 10.489332 30.576374 1.174163 8.488171 -25.171828 0.012514 0.721909 1.983939 0.000000 0.000000 0.000000 18.828748 14.060153 -17.214733 -3.857649 -11.968537 35.620739 -1.761821 -2.517127 -26.088600 -0.012640 -0.725724 1.994513 -0.892999 -2.167560 -7.371496 -0.129158 -2.892506 -9.601429 0.302402 -1.406304 -5.855542 -5.244707 -8.921289 -8.209660 -1.029279 -12.137721 35.470080 -1.220653 -6.266088 13.631222 0.000000 0.000000 0.000000 1.661522 16.866294 -9.683753 19.375304 -29.882060 5.216662 2.892573 8.626196 -15.558928 0.000000 0.000000 0.000000 -7.125000 0.000000 0.000000 -22.626740 44.295220 -0.415790 0.000000 0.000000 0.000000 -5.370735 8.362104 29.424125 -17.539611 -27.563543 -4.334137 -6.134555 -4.534211 12.092932 0.000000 0.000000 0.000000 7.125000 0.000000 0.000000 18.648551 41.382158 1.731615
